<svg width="48" height="48" viewBox="0 0 48 48" fill="none" xmlns="http://www.w3.org/2000/svg">
<circle cx="24" cy="24" r="24" fill="#F3EDF8"/>
<path d="M24.4351 24.6973L24.7657 23.2809L23.7506 23.7531L23.0663 22.5137L22.6573 23.8261L21.4641 23.0553L21.861 24.4011L20.7172 24.4494L21.3851 25.0523L20.3633 25.8658L21.6733 26.0782L21.6969 27.1758L22.6412 26.6091L22.0039 26.6564L21.9566 25.8655L21.0715 25.724L21.8422 25.1708L21.4257 24.6618L22.1929 24.6664L21.9606 23.7321L22.8173 24.273L23.1114 23.3483L23.5215 24.252L24.3409 23.9652L24.4351 24.6973Z" fill="#8253DF"/>
<path d="M30.9055 28.5049C30.8725 28.5009 30.8381 28.4955 30.8112 28.4756C30.7675 28.4431 30.7575 28.383 30.75 28.3293C30.6061 27.2905 30.1224 26.3014 29.3909 25.55C29.9452 24.592 31.2597 24.2354 32.2088 24.8354C32.9672 25.3147 33.3236 26.3454 33.0233 27.1911C32.725 28.0312 31.8084 28.604 30.923 28.507C30.9173 28.5062 30.9114 28.5054 30.9055 28.5049ZM22.7003 26.4625C22.4823 26.2694 22.3526 26.0017 22.3348 25.7082C22.3171 25.4149 22.4138 25.1332 22.6069 24.9151C22.8139 24.6812 23.1134 24.5472 23.4287 24.5472C23.6972 24.5472 23.955 24.6447 24.1546 24.8214L26.9524 27.3002L29.1862 26.1166C29.3441 26.2743 29.5544 26.523 29.7456 26.8651C29.7531 26.8785 29.7609 26.8895 29.7682 26.9032C29.9374 27.2153 30.0598 27.5513 30.1345 27.906C30.1592 28.0244 30.1788 28.1448 30.193 28.2672L27.3676 29.6011C27.2233 29.6812 27.0633 29.7319 26.8952 29.7424C26.8723 29.7437 26.8503 29.7496 26.8272 29.7496C26.5587 29.7496 26.3011 29.6524 26.1013 29.4755L22.7003 26.4625ZM30.6885 23.5283C29.3812 23.7477 28.2363 24.8147 28.0604 26.1819C28.3408 26.0621 28.6086 25.9131 28.8578 25.738C28.7831 25.6598 28.821 25.5317 28.8691 25.435C29.2813 24.6073 30.1791 24.0445 31.1037 24.0367C32.0283 24.0289 32.9366 24.5786 33.3561 25.4025C33.7753 26.2267 33.684 27.2865 33.1275 28.0247C32.5711 28.763 31.575 29.1424 30.6689 28.9582C30.562 28.9365 30.4538 28.9064 30.3654 28.8422C30.3292 28.8159 30.294 28.7828 30.2494 28.7783C30.2145 28.7745 30.1807 28.7893 30.1487 28.8035C29.6959 29.006 29.2431 29.2082 28.7904 29.4107C29.049 30.1648 29.7016 31.9827 29.7016 31.9827C29.7016 31.9827 36.4646 31.9827 36.4595 31.9945C36.1743 29.8858 35.5512 27.584 34.4384 25.7705C33.8599 24.8278 33.0749 23.9341 32.0171 23.611C31.5758 23.4762 31.1233 23.4552 30.6885 23.5283Z" fill="#8253DF"/>
<path d="M22.0113 28.7609C21.6656 27.0381 19.9732 25.9115 18.2504 26.2572C16.5276 26.6028 15.401 28.2952 15.7467 30.018L16.2102 32H22.8497L22.0113 28.7609Z" fill="#8253DF"/>
<path d="M17.1317 19.2776C15.4298 19.1854 13.9396 20.2419 13.6163 21.8447C13.551 22.1062 13.5126 22.3786 13.5126 22.6603C13.5126 22.7403 13.5191 22.8187 13.5247 22.8974C13.5003 23.0274 13.4554 23.166 13.3711 23.3096C12.9312 23.7627 11.7659 23.1915 12.0417 23.5248C12.8281 25.1039 14.8194 25.8002 16.2441 26.0003C16.3832 26.028 16.5682 26.0102 16.7132 26.0204C16.7474 26.0242 16.767 26.0261 16.767 26.0261C18.6305 26.1268 20.2227 24.6978 20.3234 22.8343C20.4241 20.9705 18.9952 19.3783 17.1317 19.2776Z" fill="#8253DF"/>
<path d="M28.5816 23.3853C30.6209 23.3853 32.2742 21.732 32.2742 19.6926C32.2742 17.6532 30.6209 16 28.5816 16C26.5422 16 24.8889 17.6532 24.8889 19.6926C24.8889 21.732 26.5422 23.3853 28.5816 23.3853Z" fill="#8253DF"/>
</svg>
