<svg width="48" height="48" viewBox="0 0 48 48" fill="none" xmlns="http://www.w3.org/2000/svg">
<circle cx="24" cy="24" r="24" fill="#F3EDF8"/>
<path d="M27.4737 25.2919C27.3589 25.2344 27.2153 25.2057 27.0718 25.2057C27.0144 25.2057 26.9569 25.2057 26.9282 25.2057C26.7847 25.2344 26.6411 25.2919 26.5263 25.378C26.2679 25.5502 26.067 25.866 26.067 26.2105C26.067 26.555 26.2392 26.8708 26.5263 27.0431C26.6411 27.1292 26.7847 27.1866 26.9282 27.2153C26.9856 27.2153 27.0431 27.2153 27.0718 27.2153C27.2153 27.2153 27.3589 27.1866 27.4737 27.1292C27.8469 26.9856 28.1053 26.6124 28.1053 26.1818C28.1053 25.8086 27.8469 25.4354 27.4737 25.2919ZM24 18.5167C24.8612 18.5167 25.6077 18.6316 26.1531 18.7177C26.0957 18.7464 26.067 18.7751 26.0096 18.8038C25.4928 19.0335 24.7751 19.2057 23.9713 19.2057C23.1388 19.2057 22.3923 19.0335 21.8756 18.7751C21.8469 18.7464 21.8182 18.7464 21.7895 18.7177C22.5359 18.5742 23.2536 18.5167 24 18.5167ZM26.3541 19.0909C26.3254 19.1196 26.2966 19.1196 26.2392 19.1483L26.2105 19.177C25.6077 19.4641 24.8038 19.6077 24 19.6077C23.1388 19.6077 22.3349 19.4354 21.7033 19.1483L21.6172 19.1196C21.5885 19.0909 21.5598 19.0909 21.5311 19.0622L21.4737 19.0335C21.5598 19.6364 21.9043 20.4689 22.4498 20.8421C22.5646 20.9282 22.6794 20.9856 22.823 21.0431C23.1388 21.1866 23.4833 21.2727 23.8565 21.2727C24.488 21.2727 25.2344 20.9282 25.6364 20.555C26.0383 20.2105 26.2966 19.6364 26.3541 19.0909C26.3828 19.0909 26.3828 19.0909 26.3541 19.0909ZM27.2727 15.7895L23.8852 14.6699L20.6699 15.9617L20.1244 17.7703C20.1244 17.7703 20.7847 18.1148 21.1866 18.3445C21.1866 18.3445 21.2153 18.3445 21.2153 18.3732L21.7321 18.2871C22.5072 18.1435 23.2536 18.0861 24.0287 18.0861C24.9187 18.0861 25.6938 18.201 26.2392 18.2871L26.6699 18.3732H26.6986L27.7895 17.6268L27.2727 15.7895ZM24.8038 17.1962C24.7751 17.1962 24.7751 17.2249 24.8038 17.1962C24.6603 17.3397 24.488 17.3971 24.3158 17.4258C24.2584 17.4258 24.1722 17.4545 24.1148 17.4833C24.0861 17.512 24.0287 17.5407 24.0287 17.5407C24.0287 17.5407 24 17.512 23.8852 17.4833C23.7703 17.4545 23.7703 17.4545 23.6842 17.4258C23.512 17.3971 23.3397 17.3684 23.2249 17.2536C23.1388 17.1388 23.11 17.0239 23.11 16.8804C23.11 16.7943 23.1388 16.7081 23.1388 16.5933V16.5646C23.1675 16.4785 23.2249 16.3349 23.2249 16.1914C23.2249 16.1053 23.1962 15.9904 23.1388 15.9043C23.1388 15.9043 23.11 15.8756 23.0813 15.8756C23.0813 15.8756 23.0813 15.8469 23.11 15.8469C23.11 15.8469 23.11 15.8469 23.1388 15.8182L23.1675 15.7895C23.1962 15.7321 23.2536 15.7033 23.2823 15.6746L23.3684 15.5885C23.512 15.7033 23.7129 15.7033 23.8852 15.6172C23.9139 15.5885 23.9426 15.5598 24 15.5311C24 15.5311 24.201 15.6459 24.3158 15.6459C24.5167 15.6459 24.5455 15.6172 24.6316 15.5598C24.6316 15.5598 24.7464 15.6746 24.8038 15.7033C24.8325 15.7321 24.8612 15.7608 24.89 15.7895C24.7177 15.9043 24.7751 16.134 24.8038 16.3062C24.8325 16.3923 24.8612 16.4498 24.89 16.5359C24.9187 16.622 24.9474 16.7368 24.9474 16.823C24.9187 16.9952 24.89 17.11 24.8038 17.1962ZM23.799 22.8517C23.8278 22.8517 23.8278 22.8517 23.8565 22.8517L21.5598 25.5215C21.5311 25.378 21.5024 25.2344 21.5024 25.0909C21.5024 24.1435 22.0766 23.3397 22.8804 22.9952C23.1962 22.9091 23.512 22.8517 23.799 22.8517ZM21.1292 26.067L20.2966 27.0431C19.8373 26.2966 19.4641 25.7225 19.378 25.5789C19.1196 25.1483 19.378 24.4593 19.7512 24.1722C19.7512 24.1722 22.1053 21.9043 22.4785 21.5311C22.5072 21.5598 22.5646 21.5885 22.5933 21.5885C22.9952 21.7608 23.4258 21.8756 23.8852 21.8756C24 21.8756 24.1148 21.8756 24.2584 21.8469C24.4306 21.8182 24.6029 21.7895 24.7751 21.7321L24.3158 22.2775C24.1435 22.2488 23.9713 22.2201 23.799 22.2201C22.2201 22.2201 20.9282 23.512 20.9282 25.0909C20.9569 25.4354 21.0144 25.7799 21.1292 26.067ZM23.1388 27.2727L25.8373 24.0861C25.9809 24.3445 26.067 24.6603 26.067 24.9761C25.6938 25.2632 25.4641 25.7225 25.4641 26.2392C25.4641 26.3541 25.4928 26.4976 25.5215 26.6124C25.2919 26.8708 25.0335 27.0718 24.689 27.2153C24.4306 27.3301 24.1148 27.3876 23.799 27.3876C23.5694 27.3589 23.3397 27.3301 23.1388 27.2727ZM26.2392 23.5981L27.7033 21.9043C29.1388 22.2201 30.7464 22.5933 30.7751 22.5933C30.9761 22.622 31.177 22.7368 31.3206 22.8804C31.3493 22.9091 31.378 22.9378 31.4067 22.9952L31.4354 23.0239C31.6938 23.4258 31.6364 23.9426 31.2919 24.2584C31.2632 24.2871 28.6794 26.067 28.6794 26.067C28.5933 25.2632 27.933 24.6316 27.1292 24.6029L27.7608 23.9713L26.4115 23.8565C26.3541 23.7703 26.2966 23.6842 26.2392 23.5981ZM21.5598 29.0813L22.7081 27.7321C22.9378 27.8182 23.1675 27.8756 23.3971 27.933L23.8565 28.7655L23.8852 28.7368L24.0287 28.5072L24.4306 27.8756C24.9474 27.7608 25.4067 27.5024 25.7799 27.1579C26.067 27.5311 26.4976 27.7895 26.9856 27.8182L26.5837 28.4498L24.689 31.3206C24.5167 31.5502 24.2297 31.7512 23.8565 31.7512C23.4545 31.7512 23.1675 31.5789 22.9952 31.3206C22.9952 31.3206 22.3349 30.2871 21.5598 29.0813ZM24 12C17.3684 12 12 17.3684 12 24C12 28.3062 14.2679 32.0957 17.6842 34.2201C17.9139 34.3636 18.1722 34.5072 18.4019 34.622C20.067 35.512 21.9904 36 24 36C26.0096 36 27.933 35.4833 29.5981 34.622C29.8565 34.4785 30.0861 34.3636 30.3158 34.2201C33.7321 32.0957 36 28.3062 36 24C36 17.3684 30.6316 12 24 12ZM16.8517 31.7799C16.8804 31.7799 16.8804 31.8086 16.9091 31.8086C17.0526 31.9522 17.1962 32.067 17.3684 32.1818C17.2249 32.067 17.0813 31.9234 16.9091 31.8086C16.8804 31.8086 16.8517 31.7799 16.8517 31.7799C16.7368 31.6651 16.6507 31.5789 16.5359 31.4641C15.933 30.8612 15.4163 30.201 14.9856 29.4833C14.8995 29.3684 14.8421 29.2249 14.756 29.11C14.7273 29.0813 14.7273 29.0239 14.6986 28.9952C14.6411 28.8804 14.5837 28.7655 14.5263 28.6507C13.9522 27.4737 13.5789 26.1244 13.4928 24.8038C13.4928 24.7464 13.4928 24.6603 13.4641 24.6029C13.4641 24.4019 13.4354 24.201 13.4354 24C13.4354 18.1722 18.1722 13.4354 24 13.4354C24.689 13.4354 25.4067 13.4928 26.0957 13.6364C26.1531 13.6364 26.2105 13.6651 26.2679 13.6651C26.3541 13.6938 26.4689 13.7225 26.555 13.7225C26.9282 13.8086 27.3301 13.9522 27.7033 14.067C27.933 14.1531 28.1627 14.2392 28.3923 14.3541C28.6507 14.4689 28.9091 14.6124 29.1675 14.756C29.1675 14.756 29.1962 14.756 29.1962 14.7847C29.5407 14.9856 29.8852 15.1866 30.201 15.4163C30.3158 15.5024 30.6029 15.6172 30.6029 15.6459L21.3301 26.4976C21.3301 26.4976 16.823 31.7799 16.8517 31.7799ZM17.9426 32.6411C17.9139 32.6411 17.9139 32.6124 17.8852 32.6124C17.9139 32.6411 17.9139 32.6411 17.9426 32.6411ZM20.555 33.9904C20.3541 33.933 20.1818 33.8469 19.9809 33.7608V33.1866H20.555V33.9904ZM28.0191 33.7895C27.8182 33.8756 27.7321 33.933 27.445 34.0191V33.1866H28.0191V33.7895ZM30.3158 32.4689V32.2967C30.3158 30.5167 29.2823 28.7655 27.244 28.6507L25.177 31.8373C24.89 32.2679 24.3732 32.5263 23.8565 32.5263C23.2823 32.5263 22.7943 32.2679 22.5072 31.8086L21.1292 29.6268L18.3158 32.8995C18.201 32.8134 18.0861 32.7273 17.9426 32.6699L20.8421 29.2823L21.3301 28.7081L22.3349 27.5311L22.7368 27.0718L25.6077 23.7129L26.0096 23.2249L27.244 21.7895L31.6364 16.6794C31.7225 16.7655 31.8086 16.8804 31.8947 16.9665C32.4115 17.5407 32.8708 18.1722 33.244 18.8612C33.244 18.8612 33.244 18.8612 33.244 18.89C33.3014 19.0048 33.3589 19.1196 33.4163 19.2344C33.445 19.2632 33.445 19.2919 33.4737 19.3206C33.5311 19.4354 33.5598 19.5215 33.6172 19.6364C33.6459 19.6938 33.6746 19.7225 33.6746 19.7799C33.7033 19.866 33.7608 19.9809 33.7895 20.067C33.8182 20.1244 33.8469 20.1818 33.8469 20.2392C33.8756 20.3254 33.9043 20.4115 33.933 20.5263C33.9617 20.5837 33.9904 20.6699 33.9904 20.7273C34.0191 20.8134 34.0478 20.8995 34.0766 20.9856C34.1053 21.0718 34.1053 21.1292 34.134 21.2153C34.1627 21.3014 34.1914 21.3876 34.1914 21.4737C34.2201 21.5598 34.2201 21.6459 34.2488 21.7033C34.2775 21.7895 34.2775 21.8756 34.3062 21.9617C34.3349 22.0478 34.3349 22.134 34.3636 22.2201C34.3636 22.3062 34.3923 22.3636 34.3923 22.4498C34.3923 22.5359 34.4211 22.6507 34.4211 22.7368C34.4211 22.823 34.4498 22.8804 34.4498 22.9665C34.4498 23.0813 34.4785 23.1962 34.4785 23.311C34.4785 23.3684 34.4785 23.4258 34.4785 23.4833C34.4785 23.6555 34.4785 23.8278 34.4785 24C34.5646 27.4737 32.8995 30.5455 30.3158 32.4689Z" fill="#8253DF"/>
</svg>
