<svg width="48" height="48" viewBox="0 0 48 48" fill="none" xmlns="http://www.w3.org/2000/svg">
<circle cx="24" cy="24" r="24" fill="#F3EDF8"/>
<path d="M31.3267 23.86C32.2485 23.86 32.9958 23.1128 32.9958 22.191C32.9958 21.2692 32.2485 20.522 31.3267 20.522C30.405 20.522 29.6577 21.2692 29.6577 22.191C29.6577 23.1128 30.405 23.86 31.3267 23.86Z" fill="#8253DF"/>
<path d="M35.6003 26.2878C35.5498 26.212 34.2348 24.29 31.3266 24.29H26.7241C27.6092 24.7452 28.2414 25.3269 28.5702 25.7821H29.5564L29.5311 29.5753L29.0759 35.1134C29.0506 35.5686 29.3794 35.9733 29.8346 35.9985C29.8599 35.9985 29.8852 35.9985 29.9105 35.9985C30.3404 35.9985 30.6944 35.6698 30.745 35.2399L31.2002 29.9041H31.5289L31.9841 35.2399C32.0094 35.6951 32.414 36.0238 32.8692 35.9985C33.3244 35.9733 33.6531 35.5686 33.6278 35.1134L33.1726 29.5753V29.0442C33.1979 29.0695 33.2485 29.1201 33.2738 29.1454C33.4002 29.2466 33.552 29.2971 33.7037 29.2971C33.9313 29.2971 34.1589 29.196 34.3106 28.9937L35.6256 27.1729C35.7521 26.8694 35.7773 26.5407 35.6003 26.2878ZM33.1221 28.0074V26.1361C33.5267 26.3131 33.8301 26.5407 34.0325 26.743L33.1221 28.0074Z" fill="#8253DF"/>
<path d="M16.4063 23.86C17.3281 23.86 18.0754 23.1128 18.0754 22.191C18.0754 21.2692 17.3281 20.522 16.4063 20.522C15.4846 20.522 14.7373 21.2692 14.7373 22.191C14.7373 23.1128 15.4846 23.86 16.4063 23.86Z" fill="#8253DF"/>
<path d="M16.4065 24.2899C13.5236 24.2899 12.2086 26.2119 12.1328 26.2877C11.9557 26.5406 11.9557 26.8946 12.1328 27.1475L13.4478 28.9683C13.5995 29.1706 13.8271 29.2717 14.0547 29.2717C14.2064 29.2717 14.3581 29.2212 14.4846 29.12C14.5352 29.0947 14.5604 29.0694 14.5857 29.0189V29.5499L14.1305 35.0881C14.1053 35.5432 14.434 35.9479 14.8892 35.9732C14.9145 35.9732 14.9398 35.9732 14.9651 35.9732C15.395 35.9732 15.749 35.6444 15.7996 35.2145L16.2548 29.8787H16.5835L17.0387 35.2145C17.064 35.6697 17.4686 35.9984 17.9238 35.9732C18.379 35.9479 18.7077 35.5432 18.6824 35.0881L18.2273 29.5499L18.202 25.7567H19.1882C19.5422 25.3015 20.1745 24.7198 21.0343 24.2646H16.4065V24.2899ZM14.611 28.0073L13.7006 26.7429C13.9029 26.5659 14.2064 26.3383 14.611 26.136V28.0073Z" fill="#8253DF"/>
<path d="M23.8668 23.86C24.7886 23.86 25.5358 23.1128 25.5358 22.191C25.5358 21.2692 24.7886 20.522 23.8668 20.522C22.945 20.522 22.1978 21.2692 22.1978 22.191C22.1978 23.1128 22.945 23.86 23.8668 23.86Z" fill="#8253DF"/>
<path d="M23.8664 24.29C20.9835 24.29 19.6685 26.212 19.5927 26.2878C19.4156 26.5407 19.4156 26.8947 19.6179 27.1476L20.9329 28.9684C21.1605 29.2971 21.641 29.373 21.9698 29.1454C22.0203 29.1201 22.0456 29.0948 22.0709 29.0442V29.5753L21.6157 35.1134C21.5904 35.5686 21.9192 35.9733 22.3744 35.9985C22.3997 35.9985 22.4249 35.9985 22.4502 35.9985C22.8801 35.9985 23.2342 35.6698 23.2847 35.2399L23.7399 29.9041H24.0687L24.5239 35.2399C24.5492 35.6951 24.9538 36.0238 25.409 35.9985C25.8642 35.948 26.1929 35.5686 26.1676 35.1134L25.7124 29.5753V29.0442C25.7377 29.0695 25.7883 29.1201 25.8136 29.1454C25.94 29.2466 26.0918 29.2718 26.2435 29.2718C26.4711 29.2718 26.6987 29.1707 26.8504 28.9684L28.1654 27.1476C28.3424 26.8947 28.3424 26.566 28.1907 26.2878C28.0642 26.212 26.7493 24.29 23.8664 24.29ZM22.0709 28.0074L21.1605 26.743C21.3628 26.566 21.6663 26.3384 22.0709 26.1361V28.0074ZM25.6619 28.0074L25.6366 26.1361C26.0412 26.3131 26.3446 26.5407 26.5469 26.743L25.6619 28.0074Z" fill="#8253DF"/>
<path d="M20.7054 17.2093C20.8066 17.2346 20.933 17.2346 21.0848 17.184C21.1606 17.1587 21.2618 17.1587 21.3377 17.2093L23.1837 18.145L22.3745 18.5496C22.2986 18.6002 22.1975 18.6002 22.1216 18.5749C22.0204 18.5496 21.8434 18.5243 21.6917 18.5749C21.3124 18.7266 21.3124 18.9289 21.3629 19.1059C21.4135 19.2324 21.4894 19.3082 21.6158 19.3335C21.6158 19.3841 21.6411 19.46 21.6917 19.5105C21.7423 19.6117 21.8434 19.6623 21.9446 19.6876C21.9699 19.6876 21.9951 19.6876 22.0204 19.6876C22.0963 19.6876 22.1722 19.6623 22.2733 19.6117C22.3492 19.5611 22.4251 19.46 22.4756 19.3082C22.5009 19.2071 22.5768 19.1312 22.6526 19.1059L23.9171 18.4737L25.1815 19.1059C25.2573 19.1565 25.3332 19.2324 25.3585 19.3082C25.4091 19.46 25.4849 19.5358 25.5608 19.6117C25.6367 19.6623 25.7125 19.6876 25.8137 19.6876C25.839 19.6876 25.8643 19.6876 25.8896 19.6876C25.9907 19.6623 26.0666 19.6117 26.1424 19.5105C26.193 19.46 26.2183 19.3841 26.2183 19.3335C26.3447 19.3082 26.4206 19.2324 26.4712 19.1059C26.5218 18.9542 26.5218 18.7266 26.1424 18.5749C25.9907 18.5243 25.8137 18.5496 25.7125 18.5749C25.6367 18.6002 25.5355 18.6002 25.4597 18.5496L24.6504 18.145L26.4965 17.2093C26.5723 17.1587 26.6735 17.1587 26.7494 17.184C26.9011 17.2346 27.0275 17.2346 27.1287 17.2093C27.2551 17.1587 27.331 17.1082 27.3816 17.007C27.4321 16.9311 27.4321 16.8047 27.3816 16.7035C27.3563 16.6277 27.331 16.5771 27.2804 16.5265C27.331 16.4254 27.3057 16.2989 27.2551 16.1978C27.154 16.046 26.977 15.9196 26.6482 16.1472C26.4965 16.2483 26.4206 16.4001 26.37 16.5012C26.3447 16.5771 26.2689 16.653 26.193 16.6783L23.8665 17.8162L21.6411 16.7035C21.5652 16.653 21.4894 16.6024 21.4641 16.5265C21.4135 16.4254 21.3377 16.2736 21.1859 16.1725C20.8572 15.9449 20.6549 16.0713 20.579 16.2231C20.5031 16.3242 20.5031 16.4507 20.5537 16.5518C20.5031 16.6024 20.4778 16.653 20.4526 16.7288C20.4273 16.83 20.4273 16.9311 20.4526 17.0323C20.5031 17.1082 20.579 17.184 20.7054 17.2093Z" fill="#8253DF"/>
<path d="M22.4503 15.8438C22.5262 15.8944 22.5768 15.9956 22.6021 16.0967L22.6274 16.4002C22.6526 16.5772 22.7791 16.7542 22.9561 16.8048C23.563 16.9565 24.1699 16.9565 24.7769 16.8048C24.9539 16.7542 25.1056 16.6025 25.1056 16.4002L25.1309 16.0967C25.1309 15.9956 25.2068 15.9197 25.2826 15.8438C25.7631 15.4645 26.0919 14.8576 26.0919 14.0484C26.0919 12.5816 25.1056 12 23.8665 12C22.6274 12 21.6411 12.5816 21.6411 14.0484C21.6411 14.8576 21.9446 15.4645 22.4503 15.8438ZM24.8527 13.9725C25.2321 14.0231 25.3585 14.276 25.3332 14.5541C25.3079 14.8323 25.1562 15.0346 24.7263 15.0093C24.3217 14.9587 24.2205 14.7059 24.2458 14.4277C24.2711 14.1495 24.4734 13.9472 24.8527 13.9725ZM23.5124 15.7427L23.74 15.1863C23.7906 15.0852 23.9171 15.0852 23.9676 15.1863L24.1952 15.7427C24.2458 15.8691 24.1699 15.9956 24.0435 15.9956H23.6642C23.563 15.9703 23.4619 15.8438 23.5124 15.7427ZM22.8802 13.9725C23.2596 13.9219 23.4366 14.1242 23.4872 14.4277C23.5125 14.7059 23.4366 14.9587 23.0067 15.0093C22.6021 15.0599 22.4503 14.8576 22.3998 14.5541C22.3492 14.2507 22.5262 14.0231 22.8802 13.9725Z" fill="#8253DF"/>
</svg>
