<svg width="44" height="30" viewBox="0 0 44 30" fill="none" xmlns="http://www.w3.org/2000/svg">
<path d="M1.77775 3.6865L19.7778 13.3561C20.3826 13.6801 21.1649 13.8337 21.9521 13.8337C22.7393 13.8337 23.5217 13.6801 24.1265 13.3561L42.1265 3.6865C43.3001 3.0553 44.409 0.600098 42.2561 0.600098H1.65055C-0.50225 0.600098 0.60655 3.0553 1.77775 3.6865ZM42.6714 8.9737L24.1265 18.6385C23.3105 19.0657 22.7393 19.1161 21.9521 19.1161C21.1649 19.1161 20.5938 19.0657 19.7778 18.6385C18.9618 18.2113 2.65855 9.6649 1.32655 8.9713C0.39055 8.4817 0.40015 9.0553 0.40015 9.4969V27.0001C0.40015 28.0081 1.75855 29.4001 2.80015 29.4001H41.2001C42.2417 29.4001 43.6001 28.0081 43.6001 27.0001V9.4993C43.6001 9.0577 43.6097 8.4841 42.6714 8.9737Z" fill="#C0A9EF"/>
</svg>
