<svg width="48" height="48" viewBox="0 0 48 48" fill="none" xmlns="http://www.w3.org/2000/svg">
<circle cx="24" cy="24" r="24" fill="#F3EDF8"/>
<path d="M37.4482 26.6134C37.6843 26.6134 37.8759 26.4218 37.8759 26.1857V25.8431H39.7959V24.8166H35.9652C35.1419 24.8166 34.461 25.4572 34.3231 26.2948H34.3073C33.7622 26.2948 33.3479 26.1429 33.0409 25.8301C32.4339 25.2122 32.4459 24.163 32.4459 24.1548C32.4466 24.135 32.4459 24.1175 32.4445 24.0991L32.0041 18.8723L31.3499 14.3456C30.9423 12.4055 29.7974 12 28.9091 12C28.3322 12 26.9916 12.2388 26.9916 14.4524L26.9994 18.6512L26.8554 22.3115C25.5815 22.3851 24.5669 23.4434 24.5669 24.7341V30.2114C24.5669 30.313 24.5854 32.7165 26.1936 33.9558C26.8003 34.4232 27.5384 34.658 28.3976 34.658C28.8571 34.658 29.3505 34.5926 29.8785 34.4568H34.3169C34.4278 35.3259 35.1207 36 35.9648 36H39.7959V34.9735H37.8759V34.6313C37.8759 34.3959 37.6843 34.2036 37.4482 34.2036C37.2128 34.2036 37.0205 34.3962 37.0205 34.6313V34.9735H35.9652C35.6103 34.9735 35.3209 34.6357 35.3209 34.2173C35.3209 33.8001 35.6103 33.461 35.9652 33.461C36.2485 33.461 36.4784 33.2311 36.4784 32.9478C36.4784 32.6645 36.2485 32.4345 35.9652 32.4345C35.6103 32.4345 35.3209 32.0964 35.3209 31.678C35.3209 31.2608 35.6103 30.9217 35.9652 30.9217C36.2485 30.9217 36.4784 30.6918 36.4784 30.4085C36.4784 30.1252 36.2485 29.8952 35.9652 29.8952C35.6103 29.8952 35.3209 29.5561 35.3209 29.139C35.3209 28.7219 35.6103 28.3824 35.9652 28.3824C36.2485 28.3824 36.4784 28.1525 36.4784 27.8692C36.4784 27.5859 36.2485 27.3559 35.9652 27.3559C35.6103 27.3559 35.3209 27.0168 35.3209 26.6C35.3209 26.1829 35.6103 25.8435 35.9652 25.8435H37.0205V26.1857C37.0205 26.4224 37.2128 26.6134 37.4482 26.6134ZM34.7949 30.4081C34.487 30.7315 34.2943 31.1808 34.2943 31.6776C34.2943 32.1745 34.487 32.6251 34.7949 32.9474C34.6628 33.086 34.5571 33.2523 34.4736 33.4299H29.8132C29.769 33.4299 29.7249 33.4371 29.6821 33.447C28.4629 33.768 27.5028 33.6677 26.8236 33.1449C25.6157 32.2179 25.5934 30.2299 25.5934 30.211V24.7338C25.5934 24.0224 26.1276 23.4397 26.8136 23.349C26.8739 23.3411 26.9337 23.3305 26.9946 23.3305C27.3084 23.3305 27.5962 23.4376 27.8289 23.6125C28.1717 23.8671 28.3969 24.2736 28.3969 24.7324V28.3102C28.3969 28.5936 28.6268 28.8235 28.9102 28.8235C29.1935 28.8235 29.4234 28.5936 29.4234 28.3102V24.7338C29.4234 23.7045 28.7791 22.8251 27.8751 22.473L28.0249 18.6714L28.0181 14.451C28.0181 13.0262 28.6422 13.0262 28.9091 13.0262C29.3868 13.0262 30.0568 13.185 30.3394 14.5242L30.9861 18.988L31.4211 24.161C31.4211 24.3865 31.4584 25.6765 32.3046 26.5429C32.8089 27.0596 33.482 27.3213 34.3087 27.3213H34.4425C34.5287 27.5273 34.6492 27.7131 34.7973 27.8688C34.4897 28.1925 34.2957 28.6418 34.2957 29.1387C34.2957 29.6355 34.4866 30.0861 34.7949 30.4081Z" fill="#8253DF"/>
<path d="M37.876 29.5638C37.876 29.7999 37.6843 29.9916 37.4482 29.9916C37.2128 29.9916 37.0205 29.7999 37.0205 29.5638V27.8745C37.0205 27.6384 37.2132 27.4468 37.4482 27.4468C37.6843 27.4468 37.876 27.6384 37.876 27.8745V29.5638Z" fill="#8253DF"/>
<path d="M37.876 31.2529V32.9426C37.876 33.178 37.6843 33.3703 37.4482 33.3703C37.2128 33.3703 37.0205 33.1777 37.0205 32.9426V31.2529C37.0205 31.0175 37.2132 30.8252 37.4482 30.8252C37.6843 30.8252 37.876 31.0168 37.876 31.2529Z" fill="#8253DF"/>
<path d="M24.2864 19.4685C24.2279 19.3686 24.1366 19.2909 24.0284 19.2515C22.9058 18.8327 21.9832 18.5733 21.2376 18.4125C22.7969 17.9738 23.7499 17.3743 24.0709 16.6233C24.3432 15.9875 24.0637 15.4975 24.0312 15.4448C23.9846 15.3675 23.9186 15.3062 23.8402 15.2641C21.6092 14.0669 19.6811 14.1476 19.6003 14.1521C19.5757 14.1531 19.551 14.1562 19.5271 14.161C19.1551 14.2352 18.735 14.2906 18.2898 14.3492C17.4686 14.4563 16.6196 14.5685 15.9743 14.8207C15.1263 15.1519 14.6295 15.8065 14.1491 16.4388C14.0146 16.6171 13.8784 16.7967 13.732 16.9716C13.3446 17.4339 12.9802 17.9181 12.6274 18.3865C12.2568 18.8786 11.874 19.3877 11.4722 19.8589C10.9884 20.4266 10.1217 21.307 9 21.8914V23.0004C10.146 22.505 11.2659 21.6488 12.2363 20.5097C12.6575 20.0153 13.05 19.4941 13.4295 18.9901C13.7741 18.5319 14.1306 18.0584 14.5012 17.6163C14.6582 17.4291 14.8044 17.2368 14.9488 17.0465C15.3816 16.4761 15.7553 15.9837 16.3397 15.7555C16.8715 15.5488 17.6588 15.4455 18.4205 15.3452C18.8465 15.2891 19.2869 15.2313 19.6811 15.1536C19.9185 15.1516 21.4361 15.168 23.1863 16.0549C23.186 16.1011 23.1781 16.161 23.1484 16.2301C23.0395 16.4847 22.5321 17.1317 20.1783 17.6426C20.1605 17.6464 20.143 17.6501 20.1259 17.657C20.0195 17.6926 17.5062 18.5374 16.4376 19.4869C15.7245 20.1213 15.1068 21.861 14.7246 23.3382C14.7096 23.3768 14.6986 23.4172 14.6938 23.4593C14.4557 24.4044 14.3171 25.2242 14.3171 25.5497C14.3171 25.7272 14.3729 25.9353 14.4666 26.1608C14.4721 26.1765 14.4759 26.1936 14.4827 26.209C14.4865 26.2162 14.493 26.2234 14.4974 26.2306C15.0952 27.5661 17.1319 29.4799 19.1606 29.5097C21.7256 29.547 22.9061 30.0907 23.0964 31.3253C22.7005 31.8057 19.3023 32.1804 14.7051 31.689C14.6572 31.6835 14.6093 31.6852 14.5624 31.6941C14.5306 31.6993 11.6656 32.2077 9 32.0839V33.0889C9.29906 33.1022 9.59881 33.1104 9.89651 33.1104C12.1412 33.1104 14.2459 32.7689 14.6685 32.696C17.3775 32.9807 22.6792 33.1966 23.8211 32.0189C24.038 31.7951 24.1352 31.5128 24.0955 31.2243C23.7294 28.5752 20.4205 28.5263 19.175 28.5081C18.8119 28.5016 18.4564 28.4195 18.1156 28.2871C19.0802 28.0595 19.651 28.0609 19.793 28.066C20.607 28.2967 21.2893 28.2429 21.8207 27.9042C22.5287 27.4549 22.6635 26.6912 22.6765 26.606C22.6933 26.4975 22.6734 26.3849 22.62 26.2881C22.4 25.8884 22.026 25.5681 21.6055 25.3115C22.5146 25.1972 23.1662 24.9163 23.5477 24.4708C23.96 23.9893 23.8974 23.4959 23.8892 23.4425C23.8789 23.3761 23.8553 23.3118 23.8204 23.2547C23.4625 22.6767 22.7826 22.2651 22.0746 21.9766L22.4558 21.94C23.4344 21.9356 24.0849 21.6649 24.3884 21.1352C24.8083 20.4019 24.3412 19.5619 24.2864 19.4685ZM21.6339 26.6145C21.5805 26.7473 21.4758 26.9327 21.2828 27.0552C20.9947 27.2376 20.5707 27.2479 20.0226 27.085C19.9928 27.0761 19.962 27.0703 19.9309 27.0669C19.8864 27.0621 18.8448 26.967 16.9105 27.5781C16.3688 27.1524 15.9253 26.6549 15.6465 26.245C16.8725 25.77 18.184 25.5531 19.1483 25.4535C19.7208 25.5709 21.1124 25.974 21.6339 26.6145ZM22.8784 23.6598C22.8616 23.7087 22.8281 23.7738 22.76 23.8442C22.5735 24.0376 22.0435 24.3647 20.5964 24.3647C20.4753 24.3643 17.8083 24.3466 15.3392 25.2893C15.3755 24.9666 15.4665 24.4978 15.5958 23.9671C16.8961 23.7211 18.7216 22.701 19.3995 22.3024C19.4494 22.3267 19.5031 22.3465 19.562 22.353C20.2381 22.4393 22.2207 22.8574 22.8784 23.6598ZM23.5176 20.6356C23.4098 20.8235 23.0036 20.9357 22.4312 20.9357C22.4154 20.9357 22.3993 20.9364 22.3833 20.9378L19.3297 21.23C19.2537 21.2372 19.1805 21.2629 19.1155 21.3015C18.5218 21.6653 17.0196 22.5032 15.8997 22.8574C16.2449 21.7221 16.6935 20.6011 17.1038 20.2373C17.5079 19.8781 18.2374 19.503 18.9331 19.1985C19.1688 19.1687 20.5574 19.0592 23.4868 20.1227C23.5453 20.2791 23.5952 20.4998 23.5176 20.6356Z" fill="#8253DF"/>
</svg>
