<svg width="48" height="48" viewBox="0 0 48 48" fill="none" xmlns="http://www.w3.org/2000/svg">
<circle cx="24" cy="24" r="24" fill="#F3EDF8"/>
<path d="M25 12C18.3732 12 13 17.3732 13 24C13 30.6268 18.3732 36 25 36C31.6268 36 37 30.6268 37 24C37 17.3732 31.6268 12 25 12ZM25 30.9643C24.408 30.9643 23.9286 30.4848 23.9286 29.8929C23.9286 29.3009 24.408 28.8214 25 28.8214C25.592 28.8214 26.0714 29.3009 26.0714 29.8929C26.0714 30.4848 25.592 30.9643 25 30.9643ZM26.6848 25.0848C26.4422 25.1785 26.2335 25.3431 26.0859 25.5572C25.9382 25.7712 25.8585 26.0248 25.8571 26.2848V26.8929C25.8571 27.0107 25.7607 27.1071 25.6429 27.1071H24.3571C24.2393 27.1071 24.1429 27.0107 24.1429 26.8929V26.317C24.1429 25.6982 24.3223 25.0875 24.6759 24.5786C25.0214 24.0804 25.5036 23.7 26.0714 23.483C26.9821 23.1321 27.5714 22.3688 27.5714 21.5357C27.5714 20.3545 26.417 19.3929 25 19.3929C23.583 19.3929 22.4286 20.3545 22.4286 21.5357V21.7393C22.4286 21.8571 22.3321 21.9536 22.2143 21.9536H20.9286C20.8107 21.9536 20.7143 21.8571 20.7143 21.7393V21.5357C20.7143 20.483 21.175 19.5 22.0107 18.7688C22.8143 18.0643 23.875 17.6786 25 17.6786C26.125 17.6786 27.1857 18.067 27.9893 18.7688C28.825 19.5 29.2857 20.483 29.2857 21.5357C29.2857 23.0839 28.2652 24.4768 26.6848 25.0848Z" fill="#8253DF"/>
</svg>
