<svg width="48" height="48" viewBox="0 0 48 48" fill="none" xmlns="http://www.w3.org/2000/svg">
<circle cx="24" cy="24" r="24" fill="#F3EDF8"/>
<path d="M22.44 24.6C22.44 24.96 20.88 25.44 19.68 25.44C18.48 25.44 17.16 24.6 17.16 24.36C17.16 24 18 22.92 19.92 22.8C21 22.68 22.2 23.4 22.44 24.6ZM28.08 22.8C26.88 22.68 25.8 23.4 25.56 24.6C25.56 24.96 27 25.44 28.32 25.44C29.64 25.44 30.84 24.6 30.84 24.36C30.84 24.12 30 22.92 28.08 22.8ZM36 24C36 30.6 30.6 36 24 36C17.4 36 12 30.6 12 24C12 17.4 17.4 12 24 12C30.6 12 36 17.4 36 24ZM33.6 23.04C33.6 20.64 32.76 19.8 29.64 19.8C26.52 19.8 25.56 21.12 24 21.12C22.44 21.12 21.6 19.8 18.36 19.8C15.12 19.8 14.4 20.52 14.4 23.04C14.4 27.12 16.2 29.4 18.72 29.4C20.64 29.4 22.08 27 24 27C25.92 27 27.24 29.4 29.28 29.4C31.8 29.4 33.6 27.12 33.6 23.04Z" fill="#8253DF"/>
</svg>
