<svg width="306" height="412" viewBox="0 0 306 412" fill="none" xmlns="http://www.w3.org/2000/svg">
<g filter="url(#filter0_d)">
<circle cx="206" cy="207" r="200" fill="#C0A9EF"/>
<circle cx="206" cy="207" r="200" stroke="white" stroke-width="8"/>
</g>
<path d="M204.46 158.342C235.717 158.342 261.054 184.272 261.054 216.259V258.563C261.054 260.104 260.456 261.581 259.392 262.671C258.327 263.761 256.883 264.373 255.377 264.373H153.543C152.038 264.373 150.594 263.761 149.529 262.671C148.464 261.581 147.866 260.104 147.866 258.563V216.259C147.866 184.272 173.204 158.342 204.46 158.342ZM199.493 126.388H209.428C209.804 126.388 210.165 126.541 210.431 126.813C210.697 127.086 210.847 127.455 210.847 127.84V145.27C210.847 145.655 210.697 146.025 210.431 146.297C210.165 146.569 209.804 146.722 209.428 146.722H199.493C199.116 146.722 198.755 146.569 198.489 146.297C198.223 146.025 198.073 145.655 198.073 145.27V127.84C198.073 127.455 198.223 127.086 198.489 126.813C198.755 126.541 199.116 126.388 199.493 126.388ZM145.072 148.839C145.204 148.704 145.36 148.597 145.533 148.524C145.705 148.451 145.89 148.413 146.076 148.413C146.263 148.413 146.447 148.451 146.62 148.524C146.792 148.597 146.948 148.704 147.08 148.839L159.123 161.164C159.389 161.436 159.538 161.805 159.538 162.19C159.538 162.575 159.389 162.945 159.123 163.217L152.097 170.407C151.831 170.679 151.47 170.832 151.094 170.832C150.718 170.832 150.357 170.679 150.091 170.407L138.048 158.082C137.782 157.81 137.633 157.441 137.633 157.056C137.633 156.671 137.782 156.301 138.048 156.029L145.074 148.839H145.072ZM263.866 148.839L270.892 156.029C271.157 156.301 271.306 156.67 271.306 157.055C271.306 157.439 271.157 157.808 270.892 158.081L258.849 170.409C258.717 170.544 258.561 170.651 258.388 170.724C258.216 170.797 258.031 170.835 257.845 170.835C257.658 170.835 257.474 170.797 257.301 170.724C257.129 170.651 256.973 170.544 256.841 170.409L249.815 163.219C249.683 163.084 249.579 162.924 249.507 162.747C249.436 162.571 249.399 162.382 249.399 162.191C249.399 162 249.436 161.811 249.507 161.635C249.579 161.459 249.683 161.298 249.815 161.164L261.86 148.839C262.126 148.567 262.487 148.414 262.863 148.414C263.239 148.414 263.6 148.567 263.866 148.839ZM147.689 275.992H261.232C262.737 275.992 264.181 276.604 265.246 277.694C266.311 278.784 266.909 280.261 266.909 281.802V286.16C266.909 286.545 266.759 286.914 266.493 287.187C266.227 287.459 265.866 287.612 265.49 287.612H143.431C143.054 287.612 142.693 287.459 142.427 287.187C142.161 286.914 142.012 286.545 142.012 286.16V281.802C142.012 280.261 142.61 278.784 143.674 277.694C144.739 276.604 146.183 275.992 147.689 275.992ZM173.946 218.438V264.373H185.3V218.438H173.946Z" fill="white"/>
<defs>
<filter id="filter0_d" x="0" y="0" width="412" height="412" filterUnits="userSpaceOnUse" color-interpolation-filters="sRGB">
<feFlood flood-opacity="0" result="BackgroundImageFix"/>
<feColorMatrix in="SourceAlpha" type="matrix" values="0 0 0 0 0 0 0 0 0 0 0 0 0 0 0 0 0 0 127 0"/>
<feOffset dy="-1"/>
<feGaussianBlur stdDeviation="1"/>
<feColorMatrix type="matrix" values="0 0 0 0 0.501961 0 0 0 0 0.501961 0 0 0 0 0.501961 0 0 0 0.25 0"/>
<feBlend mode="normal" in2="BackgroundImageFix" result="effect1_dropShadow"/>
<feBlend mode="normal" in="SourceGraphic" in2="effect1_dropShadow" result="shape"/>
</filter>
</defs>
</svg>
