<svg width="128" height="36" viewBox="0 0 128 36" fill="none" xmlns="http://www.w3.org/2000/svg">
<path d="M13.6128 29.1871C13.7267 29.415 13.8863 29.6486 14.0915 29.888C14.308 30.1159 14.553 30.3268 14.8266 30.5205C15.1115 30.7143 15.4192 30.8738 15.7497 30.9992C16.0803 31.1132 16.4222 31.1702 16.7755 31.1702C17.2656 31.1702 17.7271 30.9821 18.1602 30.606C18.5933 30.2185 18.9694 29.7056 19.2885 29.0674C19.6191 28.4177 19.8755 27.6826 20.0578 26.862C20.2402 26.0301 20.3314 25.1696 20.3314 24.2806C20.3314 23.7335 20.2801 23.215 20.1775 22.7249C20.0863 22.2348 19.9382 21.8074 19.733 21.4427C19.5279 21.078 19.26 20.7874 18.9295 20.5708C18.6104 20.3543 18.2229 20.246 17.767 20.246C17.0262 20.246 16.3481 20.4626 15.7326 20.8956C15.1172 21.3287 14.5986 21.8815 14.1769 22.5539L13.6128 29.1871ZM5.2017 35.5979C5.04214 35.6321 4.91677 35.6492 4.82559 35.6492C4.46088 35.6492 4.27853 35.4327 4.27853 34.9996C4.27853 34.9426 4.27853 34.8856 4.27853 34.8286C4.28993 34.7716 4.30132 34.709 4.31272 34.6406L6.29582 10.4502C6.29582 10.416 6.29582 10.3818 6.29582 10.3476C6.30722 10.3134 6.31292 10.2849 6.31292 10.2621C6.31292 10.2165 6.30722 10.1767 6.29582 10.1425C6.29582 10.1083 6.29582 10.0798 6.29582 10.057C6.29582 9.95441 6.33001 9.87463 6.39839 9.81764C6.47817 9.74926 6.67193 9.67518 6.97965 9.5954L11.7835 8.44999C11.9089 8.42719 12.0742 8.37591 12.2793 8.29613C12.4845 8.21635 12.6839 8.17646 12.8777 8.17646C13.0258 8.17646 13.1626 8.21065 13.288 8.27903C13.4247 8.34741 13.4931 8.47848 13.4931 8.67223C13.4931 8.69503 13.4874 8.71782 13.476 8.74061C13.476 8.76341 13.476 8.7862 13.476 8.809C13.4646 8.86598 13.4361 9.11672 13.3905 9.56121C13.3449 10.0057 13.2937 10.5471 13.2367 11.1853C13.1797 11.8121 13.117 12.4903 13.0486 13.2197C12.9802 13.9377 12.9175 14.6158 12.8606 15.2541C12.8036 15.8809 12.7523 16.4166 12.7067 16.8611C12.6611 17.3056 12.6326 17.5563 12.6212 17.6133C13.4532 17.0662 14.3137 16.6103 15.2027 16.2456C16.0916 15.8695 16.9806 15.6815 17.8696 15.6815C19.0435 15.6815 20.0578 15.9265 20.9126 16.4166C21.7674 16.8953 22.474 17.5392 23.0325 18.3484C23.591 19.1462 24.0013 20.0694 24.2634 21.1179C24.5369 22.1664 24.6737 23.2492 24.6737 24.3661C24.6737 25.2664 24.5882 26.1725 24.4172 27.0843C24.2577 27.9847 24.0183 28.8508 23.6992 29.6828C23.3915 30.5148 22.9983 31.2955 22.5196 32.0249C22.0523 32.7544 21.511 33.3869 20.8955 33.9226C20.2915 34.4582 19.6134 34.8799 18.8611 35.1876C18.1089 35.4954 17.294 35.6492 16.4165 35.6492C15.3565 35.6492 14.3878 35.4156 13.5102 34.9483C12.6326 34.481 11.8177 33.877 11.0655 33.1362C11.0427 33.4097 11.0256 33.6262 11.0142 33.7858C11.0028 33.9454 10.9629 34.0707 10.8946 34.1619C10.8376 34.2417 10.7464 34.3101 10.621 34.367C10.4957 34.4126 10.3076 34.4639 10.0569 34.5209C9.9315 34.5551 9.70926 34.6121 9.39014 34.6919C9.08242 34.7602 8.70631 34.84 8.26182 34.9312C7.82873 35.0338 7.34436 35.1421 6.80869 35.256C6.28442 35.37 5.74876 35.484 5.2017 35.5979Z" fill="#8253DF"/>
<path d="M37.1022 15.6815C38.185 15.6815 39.1651 15.8866 40.0427 16.2969C40.9317 16.6958 41.6896 17.2201 42.3164 17.8697C42.9547 18.5079 43.4447 19.226 43.7867 20.0238C44.1286 20.8216 44.2995 21.6194 44.2995 22.4172C44.2995 23.1238 44.083 23.8361 43.6499 24.5541C43.2168 25.2607 42.6071 25.899 41.8207 26.4688C41.0457 27.0387 40.1111 27.5003 39.017 27.8536C37.9228 28.2069 36.7204 28.3836 35.4098 28.3836C34.7259 28.3836 34.0079 28.3152 33.2557 28.1784C33.3013 28.6685 33.4438 29.0902 33.6831 29.4435C33.9224 29.7968 34.2245 30.0874 34.5892 30.3154C34.9539 30.5433 35.3642 30.7143 35.8201 30.8282C36.2873 30.9308 36.766 30.9821 37.2561 30.9821C37.8032 30.9821 38.3274 30.9365 38.8289 30.8453C39.3418 30.7428 39.8319 30.6117 40.2991 30.4521C40.7664 30.2926 41.2166 30.1159 41.6497 29.9222C42.0828 29.7284 42.4931 29.5347 42.8806 29.3409C42.9832 29.3181 43.0686 29.301 43.137 29.2896C43.2168 29.2668 43.2909 29.2554 43.3593 29.2554C43.3593 29.2554 43.3536 29.3466 43.3422 29.529C43.3422 29.7113 43.3422 29.9678 43.3422 30.2983C43.3422 30.6288 43.3365 31.0277 43.3251 31.495C43.3251 31.9623 43.3194 32.4808 43.308 33.0507C43.3422 33.1077 43.365 33.1646 43.3764 33.2216C43.3878 33.2786 43.3935 33.3242 43.3935 33.3584C43.3935 33.4952 43.2681 33.6433 43.0174 33.8029C42.7666 33.9624 42.4361 34.1277 42.0258 34.2987C41.6269 34.4696 41.1653 34.6349 40.6411 34.7944C40.1282 34.954 39.6039 35.0965 39.0682 35.2218C38.5326 35.3586 38.014 35.4612 37.5125 35.5296C37.0111 35.6093 36.5723 35.6492 36.1962 35.6492C34.9653 35.6492 33.7686 35.4327 32.6061 34.9996C31.455 34.5779 30.4292 33.9681 29.5289 33.1703C28.6399 32.3726 27.9276 31.4038 27.3919 30.2641C26.8562 29.1244 26.5884 27.8422 26.5884 26.4176C26.5884 24.9245 26.8448 23.5284 27.3577 22.2291C27.8706 20.9184 28.5886 19.7787 29.5118 18.81C30.4463 17.8412 31.5575 17.0776 32.8454 16.5192C34.1333 15.9607 35.5522 15.6815 37.1022 15.6815ZM36.8971 20.2289C36.4298 20.2289 35.9967 20.3315 35.5978 20.5366C35.2103 20.7304 34.8513 21.0153 34.5208 21.3914C34.2017 21.7561 33.9224 22.2006 33.6831 22.7249C33.4438 23.2378 33.25 23.8076 33.1019 24.4345C34.2758 24.2293 35.2502 24.0128 36.0252 23.7848C36.8002 23.5569 37.4214 23.3289 37.8886 23.101C38.3559 22.8617 38.6864 22.628 38.8802 22.4001C39.0739 22.1607 39.1708 21.9328 39.1708 21.7162C39.1708 21.5111 39.091 21.3173 38.9315 21.135C38.7833 20.9526 38.5953 20.7931 38.3673 20.6563C38.1394 20.5195 37.8886 20.417 37.6151 20.3486C37.353 20.2688 37.1136 20.2289 36.8971 20.2289Z" fill="#8253DF"/>
<path d="M63.8912 31.324C63.8798 31.3696 63.8741 31.4152 63.8741 31.4608C63.8741 31.495 63.8741 31.5292 63.8741 31.5634C63.8741 31.8483 63.9197 32.0876 64.0108 32.2814C64.102 32.4637 64.1989 32.6176 64.3015 32.743C64.4155 32.8569 64.518 32.9538 64.6092 33.0336C64.7004 33.102 64.746 33.1646 64.746 33.2216C64.746 33.3812 64.575 33.5294 64.2331 33.6661L59.6344 35.6321C59.623 35.6435 59.5831 35.6492 59.5147 35.6492C59.4235 35.6492 59.3323 35.5694 59.2412 35.4099C59.15 35.2503 59.0588 35.0452 58.9676 34.7944C58.8878 34.5551 58.8081 34.2987 58.7283 34.0251C58.6599 33.7402 58.5972 33.4781 58.5402 33.2387C57.8222 34.0707 57.0472 34.6805 56.2152 35.068C55.3832 35.4555 54.5569 35.6492 53.7363 35.6492C52.779 35.6492 51.8444 35.4384 50.9327 35.0167C50.0209 34.595 49.2117 33.9966 48.5051 33.2216C47.7984 32.4352 47.2286 31.4893 46.7955 30.3838C46.3738 29.2782 46.163 28.0359 46.163 26.6569C46.163 25.0271 46.3966 23.5398 46.8639 22.1949C47.3426 20.8501 47.9865 19.6933 48.7957 18.7245C49.6049 17.7557 50.5452 17.0092 51.6165 16.485C52.6992 15.9493 53.8446 15.6815 55.0527 15.6815C55.9075 15.6815 56.7167 15.8581 57.4803 16.2114C58.2439 16.5533 58.9676 16.9978 59.6515 17.5449C59.7198 17.203 59.7597 16.9294 59.7711 16.7243C59.7825 16.5192 59.8053 16.3596 59.8395 16.2456C59.8851 16.1316 59.9649 16.0576 60.0788 16.0234C60.1928 15.9778 60.3809 15.9436 60.643 15.9208C61.4636 15.8068 62.2785 15.7043 63.0877 15.6131C63.9083 15.5105 64.7631 15.4364 65.652 15.3908L63.8912 31.324ZM58.7796 24.8789C58.8935 24.2293 58.9676 23.6196 59.0018 23.0497C59.0474 22.4685 59.0816 21.9385 59.1044 21.4598C58.922 21.323 58.7226 21.1806 58.506 21.0324C58.3009 20.8843 58.073 20.7475 57.8222 20.6221C57.5829 20.4854 57.3264 20.3771 57.0529 20.2973C56.7908 20.2175 56.5115 20.1776 56.2152 20.1776C55.5998 20.1776 55.0812 20.3771 54.6595 20.776C54.2492 21.1749 53.913 21.665 53.6509 22.2462C53.4001 22.8275 53.2178 23.4429 53.1038 24.0925C53.0012 24.7422 52.9499 25.3177 52.9499 25.8192C52.9499 27.62 53.1836 28.942 53.6509 29.7854C54.1295 30.6174 54.7906 31.0334 55.634 31.0334C55.9759 31.0334 56.3577 30.9365 56.7794 30.7428C57.2011 30.549 57.6285 30.2812 58.0616 29.9393L58.7796 24.8789Z" fill="#8253DF"/>
<path d="M67.43 26.4176C67.43 24.9245 67.7035 23.5284 68.2506 22.2291C68.809 20.9184 69.5726 19.7787 70.5414 18.81C71.5216 17.8412 72.6727 17.0776 73.9947 16.5192C75.3282 15.9607 76.7756 15.6815 78.337 15.6815C79.397 15.6815 80.303 15.7669 81.0553 15.9379C81.8075 16.1089 82.4229 16.3026 82.9016 16.5192C83.3803 16.7243 83.7279 16.9181 83.9444 17.1004C84.1724 17.2714 84.2863 17.3625 84.2863 17.3739C84.2863 17.4423 84.2578 17.6361 84.2009 17.9552C84.1553 18.2629 84.0983 18.6276 84.0299 19.0493C83.9729 19.4596 83.9159 19.887 83.8589 20.3315C83.8134 20.7646 83.7906 21.1407 83.7906 21.4598C83.7906 21.5168 83.7735 21.5795 83.7393 21.6479C83.7051 21.7162 83.6139 21.7504 83.4657 21.7504C83.329 21.7504 83.1295 21.7048 82.8674 21.6137C82.6053 21.5111 82.2804 21.4028 81.8929 21.2888C81.5168 21.1749 81.078 21.0723 80.5766 20.9811C80.0865 20.8786 79.5394 20.8273 78.9354 20.8273C78.1832 20.8273 77.505 20.964 76.901 21.2376C76.297 21.4997 75.7784 21.8701 75.3453 22.3488C74.9122 22.8161 74.576 23.3745 74.3366 24.0242C74.1087 24.6738 73.9947 25.3747 73.9947 26.1269C73.9947 26.9133 74.1144 27.5858 74.3537 28.1442C74.6045 28.6913 74.935 29.1415 75.3453 29.4948C75.7556 29.8367 76.2286 30.0874 76.7642 30.247C77.2999 30.4065 77.8641 30.4863 78.4567 30.4863C79.1405 30.4863 79.8301 30.3951 80.5253 30.2128C81.2205 30.019 81.8758 29.7512 82.4913 29.4093C82.5141 29.3979 82.5597 29.3922 82.6281 29.3922C82.685 29.3922 82.7249 29.4207 82.7477 29.4777C82.7819 29.5347 82.799 29.6429 82.799 29.8025C82.799 30.1672 82.799 30.6117 82.799 31.136C82.799 31.6488 82.7933 32.1446 82.7819 32.6233C82.7819 33.0906 82.7762 33.4895 82.7648 33.82C82.7534 34.1505 82.742 34.3158 82.7306 34.3158C82.3203 34.5893 81.8758 34.8115 81.3972 34.9825C80.9185 35.1535 80.4227 35.2902 79.9098 35.3928C79.4084 35.4954 78.9012 35.5637 78.3883 35.5979C77.8755 35.6321 77.3797 35.6492 76.901 35.6492C75.5675 35.6492 74.3252 35.427 73.1741 34.9825C72.023 34.538 71.0201 33.9112 70.1653 33.102C69.3219 32.2928 68.6552 31.324 68.1651 30.1957C67.675 29.056 67.43 27.7966 67.43 26.4176Z" fill="#8253DF"/>
<path d="M94.9199 35.6492C93.3129 35.6492 91.8996 35.3871 90.6801 34.8628C89.472 34.3386 88.4577 33.6433 87.6371 32.7771C86.8165 31.8996 86.201 30.8966 85.7908 29.7683C85.3805 28.6286 85.1753 27.449 85.1753 26.2295C85.1753 25.01 85.3748 23.8532 85.7737 22.7591C86.1726 21.6536 86.731 20.6677 87.449 19.8015C88.1671 18.9239 89.0275 18.1945 90.0305 17.6133C91.0334 17.0206 92.139 16.6217 93.347 16.4166C93.5294 16.4052 93.6206 16.3653 93.6206 16.2969C93.6206 16.1715 93.6035 16.0576 93.5693 15.955C93.5465 15.841 93.5351 15.7441 93.5351 15.6644C93.5351 15.539 93.5579 15.4535 93.6035 15.4079C93.6491 15.3623 93.7004 15.3395 93.7573 15.3395C95.9342 15.3395 97.7862 15.5903 99.3134 16.0918C100.841 16.5818 102.083 17.2543 103.04 18.1091C103.998 18.9638 104.693 19.9725 105.126 21.135C105.559 22.2975 105.776 23.5455 105.776 24.8789C105.776 26.5771 105.491 28.0929 104.921 29.4264C104.351 30.7599 103.57 31.8882 102.579 32.8113C101.599 33.7345 100.447 34.4354 99.1254 34.9141C97.8147 35.4042 96.4129 35.6492 94.9199 35.6492ZM91.7571 26.0414C91.7571 26.6569 91.8198 27.2666 91.9452 27.8707C92.082 28.4747 92.2985 29.0218 92.5948 29.5119C92.9026 30.0019 93.3015 30.4008 93.7915 30.7086C94.2816 31.0049 94.8914 31.1531 95.6208 31.1531C96.145 31.1303 96.6009 31.0163 96.9884 30.8111C97.3873 30.5946 97.7292 30.3211 98.0142 29.9906C98.2991 29.6486 98.5327 29.2668 98.7151 28.8451C98.9088 28.4234 99.057 27.9904 99.1596 27.5459C99.2736 27.09 99.3533 26.6455 99.3989 26.2124C99.4445 25.7793 99.4673 25.3861 99.4673 25.0328C99.4673 24.4402 99.3761 23.8589 99.1938 23.289C99.0228 22.7192 98.7664 22.2177 98.4245 21.7846C98.0826 21.3515 97.6552 21.0039 97.1423 20.7418C96.6408 20.4683 96.0596 20.3315 95.3985 20.3315C94.7147 20.3315 94.1391 20.5366 93.6719 20.9469C93.2046 21.3458 92.8285 21.8416 92.5435 22.4343C92.27 23.0269 92.0706 23.6538 91.9452 24.3148C91.8198 24.9644 91.7571 25.54 91.7571 26.0414Z" fill="#8253DF"/>
<path d="M122.17 35.3757C122.045 35.4099 121.88 35.4612 121.675 35.5296C121.469 35.6093 121.27 35.6492 121.076 35.6492C120.917 35.6492 120.774 35.6093 120.649 35.5296C120.535 35.4498 120.478 35.313 120.478 35.1193V35.0167C120.546 34.4012 120.603 33.8827 120.649 33.461C120.694 33.0279 120.734 32.6404 120.769 32.2985C120.814 31.9452 120.848 31.5975 120.871 31.2556C120.905 30.9023 120.945 30.4977 120.991 30.0418C121.036 29.5746 121.088 29.0275 121.145 28.4007C121.213 27.7624 121.293 26.9703 121.384 26.0244C121.441 25.4431 121.492 24.8504 121.538 24.2464C121.583 23.6424 121.606 23.0839 121.606 22.571C121.606 22.2291 121.578 21.9157 121.521 21.6308C121.475 21.3344 121.384 21.0837 121.247 20.8786C121.122 20.662 120.945 20.4967 120.717 20.3828C120.489 20.2688 120.199 20.2118 119.845 20.2118C119.583 20.2118 119.219 20.2688 118.751 20.3828C118.295 20.4967 117.839 20.6848 117.384 20.9469C116.928 21.2091 116.523 21.5567 116.17 21.9898C115.816 22.4115 115.617 22.9357 115.571 23.5626C115.503 24.406 115.44 25.1297 115.383 25.7337C115.326 26.3264 115.275 26.8335 115.23 27.2552C115.184 27.6655 115.144 28.0018 115.11 28.2639C115.087 28.526 115.07 28.7483 115.059 28.9306C115.047 28.9762 115.03 29.1016 115.007 29.3067C114.984 29.5119 114.956 29.7569 114.922 30.0418C114.899 30.3268 114.871 30.6288 114.836 30.9479C114.814 31.267 114.785 31.5691 114.751 31.854C114.728 32.1389 114.705 32.3839 114.682 32.5891C114.671 32.7942 114.665 32.9196 114.665 32.9652C114.665 33.0564 114.665 33.1362 114.665 33.2045C114.677 33.2615 114.682 33.3185 114.682 33.3755C114.682 33.4667 114.637 33.5465 114.546 33.6148C114.466 33.6718 114.278 33.7402 113.982 33.82L109.451 35.3757C109.326 35.4213 109.161 35.4783 108.955 35.5466C108.75 35.615 108.551 35.6492 108.357 35.6492C108.198 35.6492 108.055 35.6093 107.93 35.5296C107.816 35.4498 107.759 35.313 107.759 35.1193L109.314 17.6475C109.349 17.2714 109.388 17.0149 109.434 16.8782C109.491 16.73 109.622 16.6331 109.827 16.5875C110.864 16.3824 111.93 16.1772 113.024 15.9721C114.118 15.7555 115.184 15.482 116.221 15.1515C116.312 15.1515 116.364 15.1686 116.375 15.2028C116.398 15.2256 116.409 15.2655 116.409 15.3225C116.409 15.3452 116.403 15.3794 116.392 15.425C116.392 15.4706 116.375 15.5732 116.341 15.7327C116.318 15.8923 116.278 16.1373 116.221 16.4679C116.175 16.787 116.107 17.2372 116.016 17.8184C116.802 17.3625 117.537 16.9978 118.221 16.7243C118.916 16.4394 119.566 16.2228 120.17 16.0747C120.786 15.9151 121.361 15.8125 121.897 15.7669C122.433 15.71 122.934 15.6815 123.401 15.6815C125.008 15.6815 126.176 16.1715 126.906 17.1517C127.635 18.1204 128 19.5793 128 21.5282C128 21.8017 127.994 22.0866 127.983 22.383C127.972 22.6679 127.949 22.9642 127.915 23.2719L127.128 30.6231C127.071 31.1018 127.037 31.5463 127.026 31.9566C127.014 32.3555 127.008 32.8227 127.008 33.3584C127.008 33.4496 127.008 33.5294 127.008 33.5977C127.02 33.6547 127.026 33.706 127.026 33.7516C127.026 33.8542 126.98 33.934 126.889 33.9909C126.809 34.0479 126.621 34.122 126.325 34.2132L122.17 35.3757Z" fill="#8253DF"/>
<path d="M13.2643 5.9291L6.64915 7.56714C6.53928 7.59435 6.45751 7.68641 6.44347 7.79873L6.31008 8.86586C6.28653 9.05425 6.45737 9.20875 6.64245 9.16644L13.2532 7.65541C13.3662 7.62957 13.4507 7.53529 13.464 7.42011L13.6018 6.22597C13.6237 6.03638 13.4496 5.88323 13.2643 5.9291Z" fill="#8253DF"/>
<path d="M9.39582 4.69023L6.79503 5.32897C6.68068 5.35706 6.59713 5.45517 6.58763 5.57253L6.49731 6.68812C6.48227 6.87388 6.65334 7.01996 6.83445 6.97601L9.48034 6.33394C9.59899 6.30515 9.68419 6.20122 9.68914 6.07924L9.73437 4.96698C9.74177 4.78504 9.57266 4.6468 9.39582 4.69023Z" fill="#8253DF"/>
<path d="M13.3472 3.73814L10.6317 4.417C10.5139 4.44645 10.4296 4.55008 10.4248 4.67143L10.379 5.81708C10.3717 5.9977 10.5386 6.13554 10.7146 6.09434L13.3835 5.4697C13.4997 5.44252 13.5848 5.34325 13.5939 5.22434L13.6862 4.02449C13.7006 3.83834 13.5283 3.69286 13.3472 3.73814Z" fill="#8253DF"/>
<path d="M13.4743 3.21851C13.6212 3.18306 13.7129 3.03455 13.6613 2.89257C13.5577 2.60737 13.4009 2.34049 13.1959 2.10121C12.9293 1.79004 12.5862 1.53164 12.1863 1.34076C11.7864 1.14989 11.3375 1.03027 10.8651 0.988751C10.3928 0.947228 9.90631 0.98461 9.43347 1.09876C8.96062 1.21292 8.51067 1.4016 8.10931 1.65405C7.70794 1.9065 7.36302 2.21777 7.09423 2.57008C6.82545 2.92239 6.63807 3.30885 6.54279 3.70739C6.46952 4.01385 6.45181 4.32285 6.48971 4.62391C6.50857 4.77379 6.65796 4.8641 6.80481 4.82864L13.4743 3.21851Z" fill="#8253DF"/>
<path d="M11.3907 1.11688C11.5413 1.10465 11.6566 0.970212 11.6041 0.828565C11.5802 0.764034 11.5495 0.701287 11.5124 0.641015C11.4256 0.500329 11.3051 0.375886 11.1577 0.274791C11.0103 0.173696 10.8388 0.0979295 10.6532 0.0518163C10.4676 0.00570317 10.2714 -0.0098531 10.0759 0.00603573C9.88029 0.0219246 9.68918 0.0689473 9.51344 0.144419C9.3377 0.219891 9.18077 0.322334 9.05161 0.445899C8.92245 0.569464 8.82359 0.711731 8.76067 0.864578C8.73372 0.93006 8.71359 0.996934 8.7004 1.06448C8.67144 1.21275 8.80699 1.3268 8.95756 1.31457L11.3907 1.11688Z" fill="#8253DF"/>
<path fill-rule="evenodd" clip-rule="evenodd" d="M19.3612 0.494512C19.4939 0.422292 19.6601 0.471394 19.7322 0.604167L19.7392 0.617054C19.8114 0.749743 19.7623 0.915768 19.6296 0.987942L13.4306 4.36065C13.2165 4.47713 13.2502 4.79429 13.4839 4.86327L19.5528 6.65414C19.6977 6.69689 19.7805 6.84896 19.7378 6.99383L19.7336 7.00794C19.6909 7.15287 19.5388 7.23571 19.3938 7.19295L12.0239 5.01815C11.7901 4.94917 11.7565 4.63201 11.9705 4.51553L19.3612 0.494512Z" fill="#8253DF"/>
<path fill-rule="evenodd" clip-rule="evenodd" d="M0.4165 10.3545C0.283968 10.4263 0.11833 10.3773 0.0461148 10.245L0.0334896 10.2219C-0.0390489 10.089 0.0101674 9.92247 0.143292 9.85035L6.50804 6.40233C6.72267 6.28606 6.68906 5.9682 6.45486 5.89939L0.221022 4.06774C0.0758722 4.02509 -0.00709197 3.87272 0.0358526 3.72766L0.0432426 3.7027C0.0860633 3.55805 0.237901 3.47538 0.382632 3.5179L7.95023 5.74144C8.18443 5.81026 8.21805 6.12811 8.00341 6.24439L0.4165 10.3545Z" fill="#8253DF"/>
</svg>
