<svg width="256" height="72" viewBox="0 0 256 72" fill="none" xmlns="http://www.w3.org/2000/svg">
<path d="M27.2255 58.3741C27.4535 58.83 27.7726 59.2973 28.1829 59.776C28.616 60.2318 29.1061 60.6535 29.6531 61.041C30.223 61.4285 30.8384 61.7477 31.4995 61.9984C32.1605 62.2263 32.8443 62.3403 33.551 62.3403C34.5311 62.3403 35.4543 61.9642 36.3204 61.212C37.1866 60.437 37.9388 59.4112 38.5771 58.1348C39.2381 56.8355 39.751 55.3653 40.1157 53.7241C40.4804 52.0601 40.6628 50.3391 40.6628 48.5612C40.6628 47.4671 40.5602 46.4299 40.355 45.4498C40.1727 44.4696 39.8764 43.6148 39.4661 42.8854C39.0558 42.156 38.5201 41.5747 37.8591 41.1417C37.2208 40.7086 36.4458 40.492 35.534 40.492C34.0524 40.492 32.6962 40.9251 31.4653 41.7913C30.2344 42.6575 29.1973 43.763 28.3539 45.1079L27.2255 58.3741ZM10.4034 71.1959C10.0843 71.2643 9.83354 71.2984 9.65118 71.2984C8.92177 71.2984 8.55706 70.8654 8.55706 69.9992C8.55706 69.8852 8.55706 69.7712 8.55706 69.6573C8.57985 69.5433 8.60265 69.4179 8.62544 69.2812L12.5916 20.9004C12.5916 20.832 12.5916 20.7636 12.5916 20.6952C12.6144 20.6268 12.6258 20.5698 12.6258 20.5243C12.6258 20.4331 12.6144 20.3533 12.5916 20.2849C12.5916 20.2165 12.5916 20.1596 12.5916 20.114C12.5916 19.9088 12.66 19.7493 12.7968 19.6353C12.9563 19.4985 13.3439 19.3504 13.9593 19.1908L23.5671 16.9C23.8178 16.8544 24.1483 16.7518 24.5586 16.5923C24.9689 16.4327 25.3678 16.3529 25.7553 16.3529C26.0516 16.3529 26.3252 16.4213 26.5759 16.5581C26.8494 16.6948 26.9862 16.957 26.9862 17.3445C26.9862 17.3901 26.9748 17.4356 26.952 17.4812C26.952 17.5268 26.952 17.5724 26.952 17.618C26.9292 17.732 26.8722 18.2334 26.7811 19.1224C26.6899 20.0114 26.5873 21.0941 26.4733 22.3706C26.3594 23.6243 26.234 24.9805 26.0972 26.4394C25.9605 27.8754 25.8351 29.2317 25.7211 30.5081C25.6072 31.7618 25.5046 32.8332 25.4134 33.7221C25.3222 34.6111 25.2652 35.1126 25.2424 35.2266C26.9064 34.1324 28.6274 33.2207 30.4053 32.4912C32.1833 31.739 33.9612 31.3629 35.7392 31.3629C38.087 31.3629 40.1157 31.853 41.8253 32.8332C43.5348 33.7905 44.9481 35.0784 46.065 36.6968C47.1819 38.2924 48.0025 40.1387 48.5268 42.2358C49.0738 44.3329 49.3474 46.4983 49.3474 48.7321C49.3474 50.5329 49.1764 52.345 48.8345 54.1686C48.5154 55.9693 48.0367 57.7017 47.3985 59.3657C46.783 61.0296 45.9966 62.591 45.0392 64.0499C44.1047 65.5087 43.022 66.7738 41.7911 67.8451C40.583 68.9165 39.2267 69.7598 37.7223 70.3753C36.2179 70.9907 34.5881 71.2984 32.8329 71.2984C30.7131 71.2984 28.7756 70.8312 27.0204 69.8966C25.2652 68.962 23.6355 67.7539 22.131 66.2723C22.0854 66.8194 22.0513 67.2525 22.0285 67.5716C22.0057 67.8907 21.9259 68.1414 21.7891 68.3238C21.6751 68.4834 21.4928 68.6201 21.2421 68.7341C20.9913 68.8253 20.6152 68.9278 20.1137 69.0418C19.863 69.1102 19.4185 69.2242 18.7803 69.3837C18.1648 69.5205 17.4126 69.6801 16.5236 69.8624C15.6575 70.0676 14.6887 70.2841 13.6174 70.512C12.5688 70.74 11.4975 70.9679 10.4034 71.1959Z" fill="#C0A9EF"/>
<path d="M74.2045 31.3629C76.3699 31.3629 78.3302 31.7732 80.0854 32.5938C81.8634 33.3916 83.3792 34.4402 84.6329 35.7394C85.9093 37.0159 86.8895 38.4519 87.5733 40.0475C88.2571 41.6431 88.5991 43.2387 88.5991 44.8343C88.5991 46.2476 88.166 47.6722 87.2998 49.1082C86.4336 50.5215 85.2141 51.798 83.6413 52.9377C82.0913 54.0774 80.2222 55.0006 78.0339 55.7072C75.8457 56.4138 73.4409 56.7671 70.8195 56.7671C69.4519 56.7671 68.0159 56.6303 66.5114 56.3568C66.6026 57.337 66.8875 58.1804 67.3662 58.887C67.8449 59.5936 68.4489 60.1749 69.1784 60.6307C69.9078 61.0866 70.7284 61.4285 71.6401 61.6565C72.5747 61.8616 73.5321 61.9642 74.5122 61.9642C75.6063 61.9642 76.6549 61.873 77.6578 61.6907C78.6836 61.4855 79.6637 61.2234 80.5983 60.9043C81.5328 60.5852 82.4332 60.2318 83.2994 59.8443C84.1656 59.4568 84.9862 59.0693 85.7612 58.6818C85.9663 58.6362 86.1373 58.6021 86.274 58.5793C86.4336 58.5337 86.5818 58.5109 86.7185 58.5109C86.7185 58.5109 86.7071 58.6932 86.6843 59.0579C86.6843 59.4226 86.6843 59.9355 86.6843 60.5965C86.6843 61.2576 86.6729 62.0554 86.6501 62.9899C86.6501 63.9245 86.6387 64.9616 86.616 66.1014C86.6843 66.2153 86.7299 66.3293 86.7527 66.4433C86.7755 66.5572 86.7869 66.6484 86.7869 66.7168C86.7869 66.9903 86.5362 67.2867 86.0347 67.6058C85.5332 67.9249 84.8722 68.2554 84.0516 68.5973C83.2538 68.9392 82.3306 69.2698 81.2821 69.5889C80.2564 69.908 79.2078 70.1929 78.1365 70.4437C77.0652 70.7172 76.028 70.9223 75.0251 71.0591C74.0221 71.2187 73.1446 71.2984 72.3923 71.2984C69.9306 71.2984 67.5372 70.8654 65.2122 69.9992C62.9099 69.1558 60.8585 67.9363 59.0577 66.3407C57.2798 64.7451 55.8551 62.8076 54.7838 60.5282C53.7125 58.2487 53.1768 55.6844 53.1768 52.8351C53.1768 49.8491 53.6897 47.0568 54.7154 44.4582C55.7411 41.8369 57.1772 39.5575 59.0235 37.6199C60.8926 35.6824 63.1151 34.1552 65.6908 33.0383C68.2666 31.9214 71.1045 31.3629 74.2045 31.3629ZM73.7942 40.4578C72.8596 40.4578 71.9934 40.663 71.1956 41.0733C70.4206 41.4608 69.7026 42.0306 69.0416 42.7828C68.4034 43.5123 67.8449 44.4012 67.3662 45.4498C66.8875 46.4755 66.5 47.6152 66.2037 48.8689C68.5515 48.4586 70.5004 48.0255 72.0504 47.5696C73.6004 47.1138 74.8427 46.6579 75.7773 46.202C76.7119 45.7233 77.3729 45.256 77.7604 44.8001C78.1479 44.3215 78.3416 43.8656 78.3416 43.4325C78.3416 43.0222 78.1821 42.6347 77.863 42.27C77.5666 41.9053 77.1905 41.5861 76.7346 41.3126C76.2788 41.0391 75.7773 40.8339 75.2302 40.6972C74.706 40.5376 74.2273 40.4578 73.7942 40.4578Z" fill="#C0A9EF"/>
<path d="M127.782 62.648C127.76 62.7392 127.748 62.8304 127.748 62.9216C127.748 62.9899 127.748 63.0583 127.748 63.1267C127.748 63.6966 127.839 64.1752 128.022 64.5627C128.204 64.9275 128.398 65.2352 128.603 65.4859C128.831 65.7139 129.036 65.9076 129.218 66.0672C129.401 66.2039 129.492 66.3293 129.492 66.4433C129.492 66.7624 129.15 67.0587 128.466 67.3322L119.269 71.2643C119.246 71.287 119.166 71.2984 119.029 71.2984C118.847 71.2984 118.665 71.1389 118.482 70.8198C118.3 70.5006 118.118 70.0904 117.935 69.5889C117.776 69.1102 117.616 68.5973 117.457 68.0503C117.32 67.4804 117.194 66.9561 117.08 66.4775C115.644 68.1414 114.094 69.3609 112.43 70.1359C110.766 70.9109 109.114 71.2984 107.473 71.2984C105.558 71.2984 103.689 70.8768 101.865 70.0334C100.042 69.19 98.4234 67.9933 97.0101 66.4433C95.5969 64.8705 94.4572 62.9785 93.591 60.7675C92.7476 58.5565 92.3259 56.0719 92.3259 53.3138C92.3259 50.0542 92.7932 47.0796 93.7278 44.3898C94.6851 41.7001 95.973 39.3865 97.5914 37.449C99.2098 35.5115 101.09 34.0185 103.233 32.9699C105.398 31.8986 107.689 31.3629 110.105 31.3629C111.815 31.3629 113.433 31.7162 114.961 32.4229C116.488 33.1067 117.935 33.9957 119.303 35.0898C119.44 34.406 119.519 33.8589 119.542 33.4486C119.565 33.0383 119.611 32.7192 119.679 32.4912C119.77 32.2633 119.93 32.1151 120.158 32.0468C120.386 31.9556 120.762 31.8872 121.286 31.8416C122.927 31.6137 124.557 31.4085 126.175 31.2262C127.817 31.021 129.526 30.8728 131.304 30.7817L127.782 62.648ZM117.559 49.7579C117.787 48.4586 117.935 47.2391 118.004 46.0994C118.095 44.9369 118.163 43.877 118.209 42.9196C117.844 42.6461 117.445 42.3612 117.012 42.0648C116.602 41.7685 116.146 41.495 115.644 41.2442C115.166 40.9707 114.653 40.7542 114.106 40.5946C113.582 40.435 113.023 40.3553 112.43 40.3553C111.2 40.3553 110.162 40.7542 109.319 41.552C108.498 42.3498 107.826 43.3299 107.302 44.4924C106.8 45.6549 106.436 46.8858 106.208 48.1851C106.002 49.4844 105.9 50.6355 105.9 51.6384C105.9 55.2399 106.367 57.884 107.302 59.5708C108.259 61.2348 109.581 62.0668 111.268 62.0668C111.952 62.0668 112.715 61.873 113.559 61.4855C114.402 61.098 115.257 60.5624 116.123 59.8785L117.559 49.7579Z" fill="#C0A9EF"/>
<path d="M134.86 52.8351C134.86 49.8491 135.407 47.0568 136.501 44.4582C137.618 41.8369 139.145 39.5575 141.083 37.6199C143.043 35.6824 145.345 34.1552 147.989 33.0383C150.656 31.9214 153.551 31.3629 156.674 31.3629C158.794 31.3629 160.606 31.5339 162.111 31.8758C163.615 32.2177 164.846 32.6052 165.803 33.0383C166.761 33.4486 167.456 33.8361 167.889 34.2008C168.345 34.5427 168.573 34.7251 168.573 34.7479C168.573 34.8846 168.516 35.2721 168.402 35.9104C168.311 36.5258 168.197 37.2552 168.06 38.0986C167.946 38.9192 167.832 39.774 167.718 40.663C167.627 41.5292 167.581 42.2814 167.581 42.9196C167.581 43.0336 167.547 43.159 167.479 43.2957C167.41 43.4325 167.228 43.5009 166.931 43.5009C166.658 43.5009 166.259 43.4097 165.735 43.2273C165.211 43.0222 164.561 42.8056 163.786 42.5777C163.034 42.3498 162.156 42.1446 161.153 41.9623C160.173 41.7571 159.079 41.6545 157.871 41.6545C156.366 41.6545 155.01 41.9281 153.802 42.4751C152.594 42.9994 151.557 43.7402 150.691 44.6976C149.824 45.6321 149.152 46.749 148.673 48.0483C148.217 49.3476 147.989 50.7494 147.989 52.2539C147.989 53.8267 148.229 55.1715 148.707 56.2884C149.209 57.3826 149.87 58.2829 150.691 58.9896C151.511 59.6734 152.457 60.1749 153.528 60.494C154.6 60.8131 155.728 60.9727 156.913 60.9727C158.281 60.9727 159.66 60.7903 161.051 60.4256C162.441 60.0381 163.752 59.5024 164.983 58.8186C165.028 58.7958 165.119 58.7844 165.256 58.7844C165.37 58.7844 165.45 58.8414 165.495 58.9554C165.564 59.0693 165.598 59.2859 165.598 59.605C165.598 60.3344 165.598 61.2234 165.598 62.2719C165.598 63.2977 165.587 64.2892 165.564 65.2466C165.564 66.1811 165.552 66.9789 165.53 67.64C165.507 68.301 165.484 68.6315 165.461 68.6315C164.641 69.1786 163.752 69.6231 162.794 69.965C161.837 70.3069 160.845 70.5804 159.82 70.7856C158.817 70.9907 157.802 71.1275 156.777 71.1959C155.751 71.2643 154.759 71.2984 153.802 71.2984C151.135 71.2984 148.65 70.854 146.348 69.965C144.046 69.076 142.04 67.8223 140.331 66.2039C138.644 64.5855 137.31 62.648 136.33 60.3914C135.35 58.112 134.86 55.5932 134.86 52.8351Z" fill="#C0A9EF"/>
<path d="M189.84 71.2984C186.626 71.2984 183.799 70.7742 181.36 69.7256C178.944 68.6771 176.915 67.2867 175.274 65.5543C173.633 63.7991 172.402 61.7932 171.582 59.5366C170.761 57.2572 170.351 54.898 170.351 52.459C170.351 50.02 170.75 47.7064 171.547 45.5182C172.345 43.3071 173.462 41.3354 174.898 39.603C176.334 37.8479 178.055 36.3891 180.061 35.2266C182.067 34.0413 184.278 33.2435 186.694 32.8332C187.059 32.8104 187.241 32.7306 187.241 32.5938C187.241 32.3431 187.207 32.1151 187.139 31.91C187.093 31.682 187.07 31.4883 187.07 31.3287C187.07 31.078 187.116 30.907 187.207 30.8159C187.298 30.7247 187.401 30.6791 187.515 30.6791C191.868 30.6791 195.572 31.1806 198.627 32.1835C201.681 33.1637 204.166 34.5085 206.081 36.2181C207.995 37.9277 209.386 39.945 210.252 42.27C211.118 44.595 211.551 47.091 211.551 49.7579C211.551 53.1542 210.981 56.1859 209.842 58.8528C208.702 61.5197 207.141 63.7763 205.157 65.6227C203.197 67.469 200.895 68.8709 198.251 69.8282C195.629 70.8084 192.826 71.2984 189.84 71.2984ZM183.514 52.0829C183.514 53.3138 183.64 54.5333 183.89 55.7414C184.164 56.9495 184.597 58.0436 185.19 59.0237C185.805 60.0039 186.603 60.8017 187.583 61.4171C188.563 62.0098 189.783 62.3061 191.242 62.3061C192.29 62.2605 193.202 62.0326 193.977 61.6223C194.775 61.1892 195.458 60.6421 196.028 59.9811C196.598 59.2973 197.065 58.5337 197.43 57.6903C197.818 56.8469 198.114 55.9807 198.319 55.0917C198.547 54.18 198.707 53.291 198.798 52.4248C198.889 51.5586 198.935 50.7722 198.935 50.0656C198.935 48.8803 198.752 47.7178 198.388 46.5781C198.046 45.4384 197.533 44.4354 196.849 43.5692C196.165 42.7031 195.31 42.0078 194.285 41.4836C193.282 40.9365 192.119 40.663 190.797 40.663C189.429 40.663 188.278 41.0733 187.344 41.8939C186.409 42.6917 185.657 43.6832 185.087 44.8685C184.54 46.0538 184.141 47.3075 183.89 48.6296C183.64 49.9288 183.514 51.08 183.514 52.0829Z" fill="#C0A9EF"/>
<path d="M244.341 70.7514C244.09 70.8198 243.759 70.9223 243.349 71.0591C242.939 71.2187 242.54 71.2984 242.152 71.2984C241.833 71.2984 241.548 71.2187 241.298 71.0591C241.07 70.8996 240.956 70.626 240.956 70.2385V70.0334C241.093 68.8025 241.207 67.7653 241.298 66.922C241.389 66.0558 241.469 65.2808 241.537 64.5969C241.628 63.8903 241.697 63.1951 241.742 62.5113C241.811 61.8046 241.89 60.9954 241.982 60.0837C242.073 59.1491 242.175 58.055 242.289 56.8013C242.426 55.5248 242.586 53.9406 242.768 52.0487C242.882 50.8862 242.984 49.7009 243.076 48.4928C243.167 47.2847 243.212 46.1678 243.212 45.142C243.212 44.4582 243.155 43.8314 243.041 43.2615C242.95 42.6689 242.768 42.1674 242.494 41.7571C242.244 41.324 241.89 40.9935 241.434 40.7656C240.979 40.5376 240.397 40.4236 239.691 40.4236C239.166 40.4236 238.437 40.5376 237.502 40.7656C236.591 40.9935 235.679 41.3696 234.767 41.8939C233.855 42.4181 233.046 43.1134 232.34 43.9795C231.633 44.8229 231.234 45.8715 231.143 47.1251C231.006 48.8119 230.881 50.2594 230.767 51.4675C230.653 52.6528 230.55 53.6671 230.459 54.5105C230.368 55.3311 230.288 56.0035 230.22 56.5278C230.174 57.052 230.14 57.4965 230.117 57.8612C230.094 57.9524 230.06 58.2032 230.015 58.6134C229.969 59.0237 229.912 59.5138 229.844 60.0837C229.798 60.6535 229.741 61.2576 229.673 61.8958C229.627 62.5341 229.57 63.1381 229.502 63.708C229.456 64.2778 229.411 64.7679 229.365 65.1782C229.342 65.5885 229.331 65.8392 229.331 65.9304C229.331 66.1128 229.331 66.2723 229.331 66.4091C229.354 66.5231 229.365 66.637 229.365 66.751C229.365 66.9333 229.274 67.0929 229.091 67.2297C228.932 67.3436 228.556 67.4804 227.963 67.64L218.902 70.7514C218.652 70.8426 218.321 70.9565 217.911 71.0933C217.501 71.2301 217.102 71.2984 216.714 71.2984C216.395 71.2984 216.11 71.2187 215.859 71.0591C215.631 70.8996 215.517 70.626 215.517 70.2385L218.629 35.2949C218.697 34.5427 218.777 34.0299 218.868 33.7563C218.982 33.46 219.244 33.2662 219.655 33.1751C221.729 32.7648 223.86 32.3545 226.048 31.9442C228.237 31.5111 230.368 30.964 232.442 30.303C232.624 30.303 232.727 30.3372 232.75 30.4056C232.795 30.4512 232.818 30.5309 232.818 30.6449C232.818 30.6905 232.807 30.7589 232.784 30.8501C232.784 30.9412 232.75 31.1464 232.681 31.4655C232.636 31.7846 232.556 32.2747 232.442 32.9357C232.351 33.574 232.214 34.4743 232.032 35.6368C233.605 34.7251 235.075 33.9957 236.443 33.4486C237.833 32.8787 239.132 32.4457 240.34 32.1493C241.571 31.8302 242.722 31.6251 243.794 31.5339C244.865 31.4199 245.868 31.3629 246.803 31.3629C250.017 31.3629 252.353 32.3431 253.812 34.3034C255.271 36.2409 256 39.1586 256 43.0564C256 43.6034 255.989 44.1733 255.966 44.7659C255.943 45.3358 255.897 45.9285 255.829 46.5439L254.256 61.2462C254.142 62.2035 254.074 63.0925 254.051 63.9131C254.028 64.7109 254.017 65.6455 254.017 66.7168C254.017 66.8992 254.017 67.0587 254.017 67.1955C254.04 67.3095 254.051 67.412 254.051 67.5032C254.051 67.7084 253.96 67.8679 253.778 67.9819C253.618 68.0959 253.242 68.244 252.649 68.4264L244.341 70.7514Z" fill="#C0A9EF"/>
<path d="M26.5286 11.8582L13.2983 15.1343C13.0786 15.1887 12.915 15.3728 12.8869 15.5975L12.6202 17.7317C12.5731 18.1085 12.9147 18.4175 13.2849 18.3329L26.5064 15.3108C26.7325 15.2591 26.9014 15.0706 26.928 14.8402L27.2036 12.4519C27.2473 12.0728 26.8991 11.7665 26.5286 11.8582Z" fill="#C0A9EF"/>
<path d="M18.7916 9.38047L13.5901 10.6579C13.3614 10.7141 13.1943 10.9103 13.1753 11.1451L12.9946 13.3762C12.9645 13.7478 13.3067 14.0399 13.6689 13.952L18.9607 12.6679C19.198 12.6103 19.3684 12.4024 19.3783 12.1585L19.4687 9.93396C19.4835 9.57009 19.1453 9.29361 18.7916 9.38047Z" fill="#C0A9EF"/>
<path d="M26.6943 7.47629L21.2635 8.834C21.0278 8.89291 20.8593 9.10015 20.8496 9.34286L20.7579 11.6342C20.7435 11.9954 21.0772 12.2711 21.4292 12.1887L26.7671 10.9394C26.9993 10.885 27.1696 10.6865 27.1879 10.4487L27.3725 8.04897C27.4011 7.67667 27.0566 7.38572 26.6943 7.47629Z" fill="#C0A9EF"/>
<path d="M26.9486 6.43703C27.2423 6.36612 27.4258 6.0691 27.3226 5.78513C27.1153 5.21475 26.8019 4.68099 26.3918 4.20242C25.8586 3.58008 25.1725 3.06328 24.3726 2.68153C23.5728 2.29978 22.6749 2.06055 21.7302 1.9775C20.7856 1.89446 19.8126 1.96922 18.8669 2.19753C17.9212 2.42583 17.0213 2.8032 16.2186 3.3081C15.4159 3.813 14.726 4.43553 14.1885 5.14016C13.6509 5.84478 13.2761 6.6177 13.0856 7.41478C12.939 8.02771 12.9036 8.64569 12.9794 9.24782C13.0171 9.54759 13.3159 9.72819 13.6096 9.65729L26.9486 6.43703Z" fill="#C0A9EF"/>
<path d="M22.7814 2.23377C23.0826 2.2093 23.3133 1.94042 23.2083 1.65713C23.1604 1.52807 23.0991 1.40257 23.0247 1.28203C22.8512 1.00066 22.6102 0.751772 22.3153 0.549583C22.0205 0.347393 21.6777 0.195859 21.3065 0.103633C20.9352 0.0114063 20.5428 -0.0197062 20.1517 0.0120715C19.7606 0.0438491 19.3784 0.137895 19.0269 0.288838C18.6754 0.439782 18.3615 0.644668 18.1032 0.891798C17.8449 1.13893 17.6472 1.42346 17.5213 1.72916C17.4674 1.86012 17.4272 1.99387 17.4008 2.12896C17.3429 2.42549 17.614 2.6536 17.9151 2.62913L22.7814 2.23377Z" fill="#C0A9EF"/>
<path fill-rule="evenodd" clip-rule="evenodd" d="M38.7224 0.989024C38.9878 0.844584 39.3201 0.942789 39.4645 1.20833L39.4785 1.23411C39.6227 1.49949 39.5246 1.83154 39.2593 1.97588L26.8612 8.7213C26.433 8.95425 26.5003 9.58859 26.9678 9.72654L39.1056 13.3083C39.3954 13.3938 39.561 13.6979 39.4756 13.9877L39.4672 14.0159C39.3818 14.3057 39.0775 14.4714 38.7877 14.3859L24.0477 10.0363C23.5802 9.89835 23.5129 9.26401 23.9411 9.03106L38.7224 0.989024Z" fill="#C0A9EF"/>
<path fill-rule="evenodd" clip-rule="evenodd" d="M0.833 20.709C0.567937 20.8526 0.23666 20.7547 0.0922297 20.4901L0.0669793 20.4438C-0.0780978 20.178 0.0203347 19.8449 0.286584 19.7007L13.0161 12.8047C13.4453 12.5721 13.3781 11.9364 12.9097 11.7988L0.442043 8.13548C0.151744 8.05019 -0.0141839 7.74544 0.0717053 7.45532L0.0864852 7.40539C0.172127 7.1161 0.475802 6.95076 0.765264 7.03581L15.9005 11.4829C16.3689 11.6205 16.4361 12.2562 16.0068 12.4888L0.833 20.709Z" fill="#C0A9EF"/>
</svg>
